<?xml version="1.0" standalone="no"?>
<!DOCTYPE svg PUBLIC "-//W3C//DTD SVG 1.1//EN" "http://www.w3.org/Graphics/SVG/1.1/DTD/svg11.dtd" >
<svg xmlns="http://www.w3.org/2000/svg">
<metadata>Generated by IcoMoon</metadata>
<defs>
<font id="icomoon" horiz-adv-x="1024">
<font-face units-per-em="1024" ascent="960" descent="-64" />
<missing-glyph horiz-adv-x="1024" />
<glyph unicode="&#x20;" horiz-adv-x="512" d="" />
<glyph unicode="&#xe900;" glyph-name="right-arrow" d="M512.001 935.619l-85.943-85.943 340.114-340.724h-741.79v-121.905h741.79l-340.114-340.726 85.943-85.943 487.621 487.621-487.621 487.619z" />
<glyph unicode="&#xe901;" glyph-name="password" horiz-adv-x="2048" d="M1792 618.667h-712.53c-69.977 198.826-259.417 341.333-482.137 341.333-282.454 0-512-229.547-512-512s229.546-512 512-512c222.72 0 412.16 142.507 482.137 341.333h29.86l170.67-170.666 170.67 170.666 170.66-170.666 341.34 344.746-170.67 167.254zM597.333 192c-140.8 0-256 115.2-256 256s115.2 256 256 256c140.8 0 256-115.2 256-256s-115.2-256-256-256z" />
<glyph unicode="&#xe902;" glyph-name="plus" d="M989.87 379.735h-409.6v-409.6h-136.532v409.6h-409.6v136.532h409.6v409.6h136.532v-409.6h409.6v-136.532z" />
<glyph unicode="&#xe903;" glyph-name="success" d="M512.004 953.679c-279.135 0-505.68-226.544-505.68-505.679s226.545-505.68 505.68-505.68c279.135 0 505.678 226.545 505.678 505.68s-226.543 505.679-505.678 505.679zM410.867 195.161l-252.839 252.839 71.301 71.301 181.538-181.034 383.81 383.81 71.301-71.805-455.111-455.111z" />
<glyph unicode="&#xe904;" glyph-name="alert" d="M463.239 301.725h97.525v-97.514h-97.525v97.514zM463.239 691.79h97.525v-292.547h-97.525v292.547zM511.514 935.58c-269.164 0-487.13-218.436-487.13-487.58s217.966-487.578 487.13-487.578c269.656 0 488.108 218.434 488.108 487.578s-218.452 487.58-488.108 487.58zM512.004 57.936c-215.528 0-390.096 174.555-390.096 390.064 0 215.511 174.568 390.064 390.096 390.064 215.526 0 390.093-174.554 390.093-390.064 0-215.508-174.566-390.064-390.093-390.064z" />
<glyph unicode="&#xe905;" glyph-name="ecosystem" horiz-adv-x="958" d="M379.782 708.243c-179.981 45.744-326.593 28.764-350.322-49.097-21.646-70.987 64.984-172.475 207.099-256.529-74.554-77.127-107.571-160.563-79.14-225.6 38.094-87.142 175.342-115.755 335.614-80.632 58.741-107.53 130.709-170.252 196.694-158.433 48.815 8.747 86.535 56.888 110.044 130.438 5.962 0.311 11.835 1.797 17.269 4.407 8.090 3.881 14.841 10.075 19.41 17.798 4.565 7.72 6.739 16.622 6.246 25.577-0.327 5.949-1.82 11.773-4.397 17.14-2.58 5.368-6.187 10.177-10.623 14.151-2.652 2.375-5.569 4.423-8.687 6.111 4.928 33.24 7.749 69.312 8.301 107.503 98.542 85.577 146.465 184.072 113.941 258.487-14.125 32.309-41.882 56.574-79.39 72.526 6.63-0.727 13.342 0.416 19.367 3.31 6.365 3.062 11.68 7.941 15.274 14.022 3.591 6.078 5.298 13.087 4.905 20.14-0.525 9.447-4.783 18.298-11.832 24.609s-16.315 9.568-25.762 9.054c-7.052-0.385-13.834-2.854-19.482-7.092s-9.916-10.058-12.255-16.721c-2.342-6.663-2.656-13.87-0.898-20.711s5.503-13.008 10.765-17.719c1.014-0.908 2.078-1.757 3.181-2.537-20.85 7.029-44.174 11.816-69.424 14.319-62.481 203.285-169.865 340.803-264.872 323.784-68.043-12.202-114.523-100.929-131.026-228.306zM805.951 243.382c-0.515-29.775-2.633-58.061-6.246-84.407-1.589 0.079-3.184 0.076-4.78-0.010-8.958-0.492-17.57-3.63-24.744-9.015s-12.592-12.777-15.565-21.24c-2.973-8.463-3.369-17.616-1.14-26.304 2.23-8.691 6.986-16.523 13.669-22.508 3.792-3.396 8.109-6.114 12.76-8.057-20.767-60.971-53.198-100.772-94.773-108.22-57.81-10.356-120.753 44.075-172.049 137.46 40.97 10.217 83.212 24.523 125.493 43.001 63.68 27.83 120.353 62.025 167.374 99.298zM529.761 830.744c72.516 12.99 153.131-76 208.685-215.954-31.714 0.39-65.741-2.398-101.201-8.427-41.396 22.839-86.872 44.103-135.28 62.753-25.372 9.775-50.5 18.429-75.172 25.964 19.869 76.362 55.448 127.151 102.968 135.663zM754.556 570.642c5.962-17.821 11.525-36.289 16.625-55.322-25.309 21.653-54.708 43.1-87.463 63.683 25.541-0.42 49.357-3.221 70.838-8.36zM529.157 634.76c27.258-10.504 53.44-21.972 78.28-34.158-47.728-10.326-97.528-26.31-147.383-48.095-17.623-7.703-34.707-15.892-51.2-24.497-0.515 51.768 3.657 99.579 12.014 141.225 34.922-8.74 71.31-20.225 108.29-34.476zM441.403 525.289c72.393 31.638 144.701 49.089 208.714 52.947 51.025-28.54 94.737-59.851 128.228-91.285 4.407-18.567 8.37-37.601 11.852-57.030 7.244-40.418 11.921-79.964 14.214-117.866-6.782-7.73-14.049-15.406-21.772-22.997-76.014-23.311-206.448-8.78-345.247 44.699-2.454 0.948-4.902 1.903-7.34 2.864-1.899 9.176-3.69 18.452-5.368 27.823-9.044 50.467-14.088 99.569-15.479 145.814 10.481 5.216 21.217 10.233 32.197 15.030zM376.584 679.011c-4.638-51.547-4.677-108.475 0.377-168.58-44.603-25.957-84.113-54.919-117.244-85.289-100.238 67.815-158.144 144.282-141.237 199.703 18.686 61.259 123.549 79.782 258.105 54.166zM378.46 493.984c3.029-30.707 7.373-62.177 13.094-94.125 3.138-17.507 6.613-34.74 10.402-51.653-48.227 20.767-92.424 44.422-130.915 69.431 30.288 27.374 66.512 53.344 107.419 76.347zM179.255 197.738c-25.011 57.215 3.858 130.501 69.116 198.005 44.94-25.722 95.065-49.647 148.802-70.349 3.729-1.44 7.455-2.851 11.175-4.241 17.927-72.076 41.515-137.702 68.605-193.529-141.685-32.226-263.896-7.224-297.697 70.114zM597.722 167.688c-33.888-14.808-67.752-26.508-100.762-35.166-24.635 51.441-45.816 112.178-61.354 178.847 124.030-42.731 239.434-58.051 320.529-46.49-43.186-36.669-97.036-70.375-158.413-97.191zM825.433 338.31c-2.19 35.995-6.24 73.285-12.262 111.375 19.971-24.92 32.649-49.241 36.544-71.604-6.537-13.206-14.673-26.515-24.282-39.771zM807.83 480.87c-4.922 26.677-10.63 52.693-17.028 77.903 32.58-14.045 56.723-35.308 69.067-63.544 11.736-26.839 11.608-57.225 1.417-88.9-10.887 23.929-29.098 49.132-53.456 74.541zM123.665 328.423c3.498 5.913 5.163 12.731 4.786 19.591-0.25 4.555-1.394 9.015-3.368 13.127s-4.739 7.796-8.137 10.838c-3.398 3.046-7.362 5.391-11.666 6.9-4.304 1.513-8.864 2.16-13.418 1.909-6.861-0.377-13.456-2.778-18.952-6.9-5.496-4.126-9.645-9.787-11.923-16.268s-2.582-13.494-0.874-20.15c1.708-6.656 5.351-12.655 10.469-17.236 5.118-4.585 11.48-7.551 18.283-8.519s13.74 0.102 19.934 3.075c6.194 2.976 11.367 7.72 14.866 13.632zM336.328 853.544c0.367-6.67-1.252-13.299-4.654-19.048-3.4-5.75-8.43-10.362-14.452-13.253s-12.767-3.932-19.381-2.99c-6.614 0.942-12.8 3.823-17.776 8.281s-8.518 10.29-10.179 16.76c-1.661 6.47-1.365 13.288 0.85 19.59s6.249 11.806 11.592 15.817c5.343 4.010 11.756 6.345 18.426 6.711 4.429 0.244 8.862-0.387 13.046-1.857s8.039-3.749 11.342-6.708c3.303-2.959 5.99-6.54 7.912-10.538 1.919-3.998 3.029-8.335 3.273-12.763zM602.931 681.957c2.233 3.777 3.297 8.132 3.055 12.513-0.324 5.875-2.97 11.381-7.353 15.307s-10.148 5.95-16.021 5.626c-4.383-0.241-8.595-1.776-12.106-4.411-3.508-2.635-6.157-6.251-7.611-10.391s-1.648-8.619-0.558-12.869c1.093-4.25 3.419-8.081 6.689-11.009s7.333-4.82 11.677-5.438c4.344-0.618 8.777 0.066 12.731 1.965 3.957 1.9 7.26 4.93 9.497 8.707z" />
<glyph unicode="&#xe906;" glyph-name="history" horiz-adv-x="1252" d="M711.111 960c-282.738 0-512-229.262-512-512h-170.667l221.298-221.298 3.982-7.964 229.831 229.262h-170.667c0 220.16 178.062 398.222 398.222 398.222s398.222-178.062 398.222-398.222c0-220.16-178.062-398.222-398.222-398.222-109.796 0-209.351 44.942-281.031 117.191l-80.782-80.782c92.729-92.729 220.16-150.187 361.813-150.187 282.738 0 512 229.262 512 512s-229.262 512-512 512zM654.222 675.556v-284.444l241.778-143.36 43.804 73.387-200.249 118.898v235.52h-85.333z" />
<glyph unicode="&#xe907;" glyph-name="import" horiz-adv-x="853" d="M824.892 590.222h-227.554v341.333h-341.334v-341.333h-227.555l398.223-398.222 398.221 398.222zM28.448 78.221v-113.775h796.444v113.775h-796.444z" />
<glyph unicode="&#xe908;" glyph-name="copy" horiz-adv-x="819" d="M601.595 917.334h-597.332v-682.669h85.333v597.336h511.999v85.333zM814.93 746.667h-640.001v-768.002h640.001v768.002zM729.595 64h-469.332v597.334h469.332v-597.334z" />
<glyph unicode="&#xe909;" glyph-name="cog" d="M892.672 397.312l-0.512-1.024c2.048 16.896 4.096 34.304 4.096 51.712s-1.536 33.792-3.584 50.688l0.512-1.024 124.928 98.304-124.416 216.064-146.944-59.392 0.512-0.512c-26.624 20.48-55.808 37.888-87.552 51.2h0.512l-23.552 156.672h-249.345l-22.528-157.184h0.512c-31.744-13.312-60.928-30.72-87.552-51.2l0.512 0.512-147.456 59.904-124.928-216.064 124.928-98.304 0.512 1.024c-2.048-16.896-3.584-33.28-3.584-50.688s1.536-34.816 4.096-51.712l-0.512 1.024-124.416-97.792 124.416-215.040 147.456 58.88-1.024 2.048c27.136-20.992 56.32-38.4 88.576-51.712h-1.536l23.040-157.696h248.321c0 0 1.536 9.216 3.072 21.504l19.456 135.68h-0.512c31.744 13.312 61.44 30.72 88.576 51.712l-1.024-2.048 147.456-58.88 124.416 215.040c0 0-7.168 6.144-16.896 13.312l-108.032 84.992zM511.743 268.8c-98.816 0-179.2 80.384-179.2 179.2s80.384 179.2 179.2 179.2c98.817 0 179.201-80.384 179.201-179.2s-80.384-179.2-179.201-179.2z" />
<glyph unicode="&#xe90a;" glyph-name="arrows" horiz-adv-x="1317" d="M291.84 521.143l-291.84-292.571 291.84-292.571v219.429h512.731v146.286h-512.731v219.429zM1316.571 667.429l-291.84 292.571v-219.429h-512.731v-146.286h512.731v-219.429l291.84 292.571z" />
<glyph unicode="&#xe90b;" glyph-name="hashtag" horiz-adv-x="1252" d="M328.21-64l80.555 210.261h245.76l-80.555-210.261h144.725l80.555 210.261h266.24v132.437h-208.896l79.189 203.435h215.727v132.437h-167.941l90.112 236.203h-144.725l-92.843-236.203h-244.395l91.477 236.203h-144.725l-94.208-236.203h-258.048v-132.437h203.435l-79.189-203.435h-210.262v-132.437h163.84l-80.555-210.261h144.725zM530.28 494.421h271.701l-86.016-228.011h-271.701l86.016 228.011z" />
<glyph unicode="&#xe90c;" glyph-name="left-arrow" d="M1024 512h-778.88l357.76 357.76-90.88 90.24-512-512 512-512 90.24 90.24-357.12 357.76h778.88v128z" />
<glyph unicode="&#xe90d;" glyph-name="close" d="M989.883 829.611l-96.256 96.256-381.611-381.611-381.61 381.611-96.256-96.256 381.61-381.611-381.61-381.61 96.256-96.256 381.61 381.611 381.611-381.611 96.256 96.256-381.611 381.61 381.611 381.611z" />
<glyph unicode="&#xe90e;" glyph-name="check" horiz-adv-x="1229" d="M395.611 183.467l-284.672 284.672-96.939-96.256 381.611-381.611 819.201 819.2-96.256 96.256-722.945-722.261z" />
<glyph unicode="&#xe910;" glyph-name="close-circle" d="M511.994 935.618c-269.654 0-487.619-217.965-487.619-487.619s217.966-487.621 487.619-487.621 487.62 217.966 487.62 487.621c0 269.654-217.966 487.619-487.62 487.619zM755.807 272.944l-68.758-68.751-175.055 175.052-175.055-175.052-68.754 68.751 175.055 175.055-175.055 175.055 68.754 68.754 175.055-175.055 175.055 175.055 68.758-68.754-175.059-175.055 175.059-175.055z" />
<glyph unicode="&#xe911;" glyph-name="circle" d="M1024 448c0-282.77-229.23-512-512-512s-512 229.23-512 512c0 282.77 229.23 512 512 512s512-229.23 512-512z" />
<glyph unicode="&#xe912;" glyph-name="other" d="M712.785 790.589l142.056-142.056-142.056-142.053-142.056 142.053 142.056 142.056zM328.282 766.494v-200.786h-200.784v200.786h200.784zM830.244 264.532v-200.782h-200.785v200.782h200.785zM328.282 264.532v-200.782h-200.784v200.782h200.784zM712.785 932.643l-284.109-283.608 284.109-284.109 284.109 284.109-284.109 283.608zM428.677 866.886h-401.57v-401.569h401.57v401.569zM930.635 364.926h-401.568v-401.571h401.568v401.571zM428.677 364.926h-401.57v-401.571h401.57v401.571z" />
<glyph unicode="&#xe913;" glyph-name="impact" d="M1024 618.667l-341.333 341.333h-682.667v-1024h1024v682.667zM227.556 732.444h398.221v-113.778h-398.221v113.778zM796.443 163.557h-568.888v113.777h568.888v-113.777zM796.443 391.11h-568.888v113.78h568.888v-113.78z" />
<glyph unicode="&#xe914;" glyph-name="retired" d="M682.181 563.566c-8.777 136.047-63.879 268.68-167.256 372.055-104.349-104.351-161.889-236.983-173.104-372.055 62.417-33.156 119.955-76.069 170.178-128.241 50.227 51.686 107.765 94.596 170.181 128.241zM365.228 434.348c-6.827 4.875-14.629 9.264-21.943 14.142 7.314-5.365 15.116-9.267 21.943-14.142zM512 279.771c-104.836 159.941-283.794 265.754-487.618 265.754 0-259.412 163.84-478.841 391.56-560.274 30.72-11.216 62.903-19.504 96.059-24.869 33.159 5.851 64.856 14.142 96.062 24.869 227.719 81.434 391.559 300.862 391.559 560.274-203.827 0-382.782-105.812-487.621-265.754z" />
<glyph unicode="&#xe915;" glyph-name="carbon" d="M149.332 688.763c-166.4-166.399-166.4-435.81-1.219-602.21 89.6 207.239 249.294 380.343 448.608 483.354-168.836-142.629-287.084-341.943-328.532-568.079 158.475-74.971 353.525-47.543 484.571 83.507 212.114 212.114 246.857 850.285 246.857 850.285s-638.171-34.743-850.286-246.857z" />
<glyph unicode="&#xe916;" glyph-name="b" horiz-adv-x="853" d="M598.17 39.168h-451.096v203.776h451.096c56.294 0 101.922-45.611 101.922-101.888 0-56.265-45.628-101.888-101.922-101.888zM147.073 549.887h451.096c56.294 0 101.922-45.614 101.922-101.887 0-56.265-45.628-101.888-101.922-101.888h-451.096v203.775zM147.073 856.83h451.096c56.294 0 101.922-45.612 101.922-101.887 0-56.266-45.628-101.886-101.922-101.886h-451.096v203.773zM834.116 754.943c0 113.249-91.84 205.057-205.133 205.057h-609.77v-1024h609.77c113.293 0 205.133 91.81 205.133 205.056 0 61.090-26.756 115.908-69.15 153.472 42.394 37.568 69.15 92.386 69.15 153.472s-26.756 115.906-69.15 153.472c42.394 37.566 69.15 92.384 69.15 153.472z" />
<glyph unicode="&#xe917;" glyph-name="right-up-arrow" d="M359.619 905.143v-121.905h401.674l-706.436-706.438 85.943-85.943 706.436 706.438v-401.676h121.907v609.524h-609.524z" />
<glyph unicode="&#xe918;" glyph-name="left-down-arrow" horiz-adv-x="951" d="M627.809-9.143v121.907h-401.676l706.438 706.436-85.943 85.943-706.438-706.436v401.674h-121.905v-609.524h609.524z" />
<glyph unicode="&#xe919;" glyph-name="unknown" horiz-adv-x="841" d="M420.571 935.58l-390.094-146.274v-296.934c0-246.228 166.278-475.878 390.094-531.95 223.817 56.071 390.096 285.722 390.096 531.95v296.934l-390.096 146.274zM713.143 492.372c0-195.035-124.343-375.439-292.571-430.533-168.227 55.095-292.57 235.012-292.57 430.533v229.161l292.57 109.706 292.571-109.706v-229.161zM469.336 350.486h-97.525v-97.518h97.525v97.518zM469.336 691.79h-97.525v-243.79h97.525v243.79z" />
<glyph unicode="&#xe91a;" glyph-name="known" horiz-adv-x="841" d="M420.571 935.627l-390.096-146.274v-296.937c0-246.228 166.278-475.878 390.096-531.95 223.817 56.071 390.093 285.722 390.093 531.95v296.937l-390.093 146.274zM713.143 492.416c0-195.032-124.343-375.435-292.571-430.533-168.229 55.099-292.572 235.015-292.572 430.533v233.064l292.572 103.367 292.571-103.367v-233.064zM265.508 516.795l-69.242-68.747 172.615-172.603 275.994 275.968-68.754 68.75-206.749-206.734-103.864 103.365z" />
<glyph unicode="&#xe91b;" glyph-name="click-radial" d="M486.637 180.829c-148.014 6.982-265.774 128.931-265.774 278.807 0 154.065 125.207 279.273 279.272 279.273 149.876 0 271.825-117.76 278.807-265.775l-97.745 29.324c-19.084 82.385-93.091 143.36-181.062 143.36-102.865 0-186.181-83.316-186.181-186.182 0-87.971 60.975-161.978 143.36-181.062l29.323-97.745zM965.59 459.636c0-13.964-0.465-27.927-1.862-41.891l-91.695 27.462c0.465 4.655 0.465 9.775 0.465 14.429 0 205.731-166.633 372.364-372.364 372.364s-372.363-166.633-372.363-372.364c0-205.731 166.633-372.364 372.363-372.364 4.655 0 9.775 0 14.429 0.465l27.462-91.695c-13.964-1.396-27.927-1.862-41.891-1.862-256.93 0-465.454 208.524-465.454 465.455s208.524 465.455 465.454 465.455c256.931 0 465.455-208.524 465.455-465.455zM790.114 261.353l175.476 58.647-465.455 139.636 139.636-465.455 58.647 175.476 198.749-198.749 92.16 92.16-199.215 198.284z" />
<glyph unicode="&#xe91c;" glyph-name="drag" horiz-adv-x="931" d="M843.869 826.415c-67.025 79.127-210.851 133.585-378.415 133.585s-311.389-54.458-378.415-133.585l-87.040 87.040v-232.727h232.727l-96.349 96.349c46.545 60.044 172.218 113.105 329.076 113.105s282.531-53.062 329.076-113.105l-96.349-96.349h232.727v232.727l-87.040-87.040zM512 424.727v279.273c0 38.633-31.185 69.818-69.818 69.818s-69.818-31.185-69.818-69.818v-499.898l-188.044 39.564-56.32-57.251 250.415-250.415h417.513l50.735 355.607-284.393 133.12h-50.269z" />
<glyph unicode="&#xe91d;" glyph-name="wallet" d="M965.338 128v-160h-960.002v960h960.002v-160h-586.668v-640h586.668zM485.336 234.669h533.333v426.664h-533.333v-426.664zM698.669 368c-44.269 0-79.999 35.733-79.999 80s35.731 80 79.999 80c44.269 0 80-35.733 80-80s-35.731-80-80-80z" />
<glyph unicode="&#xe91e;" glyph-name="pen" d="M21.063 157.062v-200h200l589.869 589.868-200.002 200-589.867-589.868zM1002.931 738.93l-200 200-134.938-135.467 200-200 134.938 135.467z" />
<glyph unicode="&#xe91f;" glyph-name="warning" d="M512 683.107l321.28-555.047h-642.56l321.28 555.047zM512 853.333l-469.333-810.603h938.667l-469.333 810.603zM554.667 256.047h-85.333v-85.325h85.333v85.325zM554.667 512.026h-85.333v-170.65h85.333v170.65z" />
<glyph unicode="&#xe920;" glyph-name="cicircle" horiz-adv-x="1463" d="M914.286 935.625c-269.411 0-487.621-218.209-487.621-487.619 0-269.413 218.21-487.62 487.621-487.62 269.407 0 487.614 218.207 487.614 487.62 0 269.41-218.207 487.619-487.614 487.619zM914.286 82.293c-201.754 0-365.716 163.961-365.716 365.713s163.962 365.714 365.716 365.714c201.75 0 365.714-163.962 365.714-365.714s-163.964-365.713-365.714-365.713zM182.856 448.006c0 159.086 101.791 294.4 243.809 344.381v127.39c-210.286-54.248-365.714-244.419-365.714-471.772 0-227.356 155.428-417.527 365.714-471.77v127.386c-142.019 49.986-243.809 185.299-243.809 344.384z" />
<glyph unicode="&#xe921;" glyph-name="co2-circle" d="M80 448c0 238.587 193.413 432 432 432s432-193.413 432-432c0-238.587-193.413-432-432-432s-432 193.413-432 432zM512 960c-282.77 0-512-229.23-512-512s229.23-512 512-512c282.77 0 512 229.23 512 512s-229.23 512-512 512zM304.412 580.741c-71.007 0-114.782-47.534-114.782-125.409s43.431-125.409 114.091-125.409c62.39 0 103.752 33.377 108.577 93.046h-62.387c-3.448-26.97-20.337-42.476-46.19-42.476-31.711 0-51.703 28.316-51.703 74.839s19.992 74.842 52.394 74.842c25.851 0 42.396-15.171 45.153-41.129h61.699c-2.412 55.962-43.43 91.697-106.852 91.697zM564.196 580.741c-73.418 0-118.917-48.207-118.917-125.409 0-77.199 45.499-125.409 118.917-125.409 73.075 0 118.574 48.21 118.574 125.409 0 77.202-45.499 125.409-118.574 125.409zM564.196 530.173c35.502 0 56.184-27.645 56.184-74.842s-20.682-74.839-56.184-74.839c-35.848 0-56.53 27.643-56.53 74.839s20.682 74.842 56.53 74.842zM782.671 440.161c-42.742 0-67.904-20.227-68.247-56.635h48.256c0.346 14.495 7.583 21.911 20.337 21.911 10.34 0 16.545-5.394 16.545-14.157 0-13.486-15.165-21.24-38.605-32.364-37.228-17.869-48.602-38.433-48.602-72.143 0-3.372 0.346-6.743 0.689-9.441h140.288v37.084h-84.447c0.689 7.416 6.203 12.81 35.156 24.947 26.196 11.123 44.81 24.271 44.81 51.917 0 27.981-25.162 48.881-66.181 48.881z" />
<glyph unicode="&#xe922;" glyph-name="b-circle" d="M80 448c0 238.587 193.413 432 432 432s432-193.413 432-432c0-238.587-193.413-432-432-432s-432 193.413-432 432zM512 960c-282.77 0-512-229.23-512-512s229.23-512 512-512c282.77 0 512 229.23 512 512s-229.23 512-512 512zM603.090 233.050h-239.59v107.139h239.59c29.901 0 54.136-23.982 54.136-53.571 0-29.583-24.236-53.568-54.136-53.568zM363.5 501.571h239.59c29.901 0 54.136-23.982 54.136-53.571 0-29.583-24.236-53.568-54.136-53.568h-239.59v107.139zM363.5 662.953h239.59c29.901 0 54.136-23.982 54.136-53.571 0-29.583-24.236-53.568-54.136-53.568h-239.59v107.139zM728.412 609.382c0 59.543-48.781 107.814-108.954 107.814h-323.871v-538.391h323.871c60.173 0 108.954 48.269 108.954 107.812 0 32.118-14.211 60.941-36.728 80.691 22.518 19.753 36.728 48.573 36.728 80.691 0 32.12-14.211 60.941-36.728 80.691 22.518 19.753 36.728 48.573 36.728 80.691z" />
<glyph unicode="&#xe923;" glyph-name="retired-outline" d="M687.182 566.965c-9.035 140.046-65.756 276.579-172.171 382.995-107.421-107.42-166.653-243.953-178.197-382.995 64.25-34.135 123.482-78.306 175.185-132.018 51.7 53.209 110.932 97.382 175.182 132.018zM514.509 789.834c31.624-51.702 53.709-109.427 65.256-169.664-23.594-15.059-45.679-31.624-67.265-49.191-21.082 17.068-43.671 33.632-66.759 48.691 12.547 60.234 35.638 117.96 68.768 170.164zM512 274.824c-41.162 62.744-93.365 117.459-153.6 160.626-6.526 4.518-13.553 8.032-20.079 13.050 6.526-4.518 13.553-8.532 19.576-12.547-97.882 70.776-217.851 112.438-347.858 112.438 0-267.044 168.659-492.926 403.073-576.753 31.624-11.544 64.753-20.079 98.888-25.6 34.132 6.024 66.759 14.556 98.885 25.6 234.415 83.826 403.074 309.709 403.074 576.753-209.818 0-394.038-108.926-501.959-273.568zM578.259 66.509c-22.088-7.529-44.174-13.553-66.762-18.574-22.085 4.518-43.671 10.541-64.25 18.071-165.146 59.232-286.118 200.282-323.765 368.941 55.216-13.050 107.921-35.638 156.612-66.759l-1.004-0.503c6.525-4.518 13.051-9.035 19.576-12.55l3.513-2.006c49.694-36.141 92.362-80.818 125.991-133.021l83.829-128.503 83.826 128c34.635 52.706 77.803 97.882 126.997 133.524l3.512 2.509c4.518 2.509 9.035 5.521 13.553 8.532l-0.5 1.006c49.191 32.626 103.906 56.721 161.129 70.274-37.647-169.162-158.118-310.212-322.259-368.941zM360.909 433.944c-1.003 0.503-2.009 1.506-2.509 2.009 0 0 0.5 0 0.5-0.503 0.503-0.503 1.006-1.003 2.009-1.506z" />
<glyph unicode="&#xe924;" glyph-name="impact-outline" d="M635.45 846.222l274.773-274.772v-521.673h-796.446v796.446h521.672zM635.45 960h-521.672c-62.578 0-113.778-51.2-113.778-113.778v-796.446c0-62.577 51.2-113.777 113.778-113.777h796.446c62.577 0 113.777 51.2 113.777 113.777v521.673c0 30.15-11.947 59.163-33.563 80.212l-274.773 274.773c-21.050 21.618-50.063 33.564-80.213 33.564zM227.556 277.333h568.888v-113.777h-568.888v113.777zM227.556 504.89h568.888v-113.78h-568.888v113.78zM227.556 732.444h398.221v-113.778h-398.221v113.778z" />
<glyph unicode="&#xe925;" glyph-name="cart" d="M779.85 163.55c-52.144 0-94.339-42.667-94.339-94.811 0-52.15 42.194-94.817 94.339-94.817 52.15 0 94.817 42.667 94.817 94.817 0 52.144-42.667 94.811-94.817 94.811zM305.778 163.55c-52.148 0-94.341-42.667-94.341-94.811 0-52.15 42.192-94.817 94.341-94.817s94.815 42.667 94.815 94.817c0 52.144-42.667 94.811-94.815 94.811zM305.778 305.772l52.148 94.816h353.185c35.556 0 66.844 19.437 82.961 48.83l208.594 377.837h-781.748l-44.563 94.815h-155.022v-94.815h94.815l170.667-359.823-141.274-256.471h729.126v94.811h-568.889z" />
<glyph unicode="&#xe926;" glyph-name="calendar" d="M938.67 832.004h-128v85.333h-85.335v-85.333h-426.668v85.333h-85.333v-85.333h-128v-853.334h853.336v853.334zM853.335 64.005h-682.668v554.666h682.668v-554.666z" />
<glyph unicode="&#xe927;" glyph-name="trash" horiz-adv-x="768" d="M64.005-32h640.001v746.667h-640.001v-746.667zM757.338 874.667h-186.666l-53.334 53.333h-266.666l-53.334-53.333h-186.666v-106.667h746.666v106.667z" />
<glyph unicode="&#xe928;" glyph-name="save" d="M778.669 928h-640.002c-59.2 0-106.667-48-106.667-106.667v-746.664c0-58.669 47.467-106.669 106.667-106.669h746.664c58.669 0 106.669 48 106.669 106.669v639.998l-213.331 213.333zM885.331 74.669h-746.664v746.664h595.733l150.931-150.933v-595.731zM512 448c-88.533 0-160-71.467-160-160 0-88.531 71.467-160 160-160s160 71.469 160 160c0 88.533-71.467 160-160 160zM192 768h480v-213.333h-480v213.333z" />
<glyph unicode="&#xe929;" glyph-name="network" horiz-adv-x="878" d="M487.618-39.621h390.096v341.332h-146.286v195.050h-243.811v97.521h146.286v341.334h-390.094v-341.334h146.287v-97.521h-243.811v-195.050h-146.286v-341.332h390.096v341.332h-146.287v97.525h390.094v-97.525h-146.286v-341.332z" />
<glyph unicode="&#xe92a;" glyph-name="globe" d="M511.531 922.069c-261.689 0-473.6-212.385-473.6-474.074s211.911-474.073 473.6-474.073c262.164 0 474.547 212.383 474.547 474.073s-212.383 474.074-474.547 474.074zM840.061 637.625h-139.85c-15.172 59.259-36.978 116.148-65.422 168.771 87.228-29.867 159.761-90.548 205.272-168.771zM512.005 825.358c39.348-56.889 70.162-119.941 90.545-187.733h-181.093c20.385 67.793 51.199 130.844 90.548 187.733zM145.071 353.183c-7.585 30.339-12.326 62.101-12.326 94.812s4.741 64.474 12.326 94.814h160.237c-3.793-31.289-6.637-62.577-6.637-94.814s2.844-63.523 6.637-94.812h-160.237zM183.945 258.367h139.852c15.17-59.261 36.978-116.15 65.422-168.772-87.23 29.867-159.763 90.078-205.274 168.772zM323.797 637.625h-139.852c45.511 78.697 118.044 138.904 205.274 168.771-28.444-52.622-50.252-109.511-65.422-168.771zM512.005 70.633c-39.348 56.889-70.163 119.939-90.548 187.733h181.093c-20.383-67.794-51.197-130.844-90.545-187.733zM622.939 353.183h-221.868c-4.267 31.289-7.585 62.575-7.585 94.812s3.318 64 7.585 94.814h221.868c4.267-30.814 7.583-62.577 7.583-94.814s-3.317-63.523-7.583-94.812zM634.789 89.594c28.444 52.622 50.25 109.511 65.422 168.772h139.85c-45.511-78.222-118.044-138.906-205.272-168.772zM718.7 353.183c3.794 31.289 6.639 62.575 6.639 94.812s-2.844 63.526-6.639 94.814h160.239c7.583-30.341 12.322-62.103 12.322-94.814s-4.739-64.473-12.322-94.812h-160.239z" />
<glyph unicode="&#xe92b;" glyph-name="wallet-outline" d="M965.331 699.733v121.6c0 58.667-48 106.667-106.669 106.667h-746.668c-59.2 0-106.667-48-106.667-106.667v-746.664c0-58.669 47.467-106.669 106.667-106.669h746.668c58.669 0 106.669 48 106.669 106.669v121.6c31.462 18.662 53.331 52.262 53.331 91.731v320c0 39.467-21.869 73.067-53.331 91.733zM911.994 608v-320h-373.332v320h373.332zM111.995 74.669v746.664h746.668v-106.666h-320.001c-58.666 0-106.666-48-106.666-106.667v-320c0-58.669 48-106.669 106.666-106.669h320.001v-106.662h-746.668zM698.662 368c44.179 0 80 35.817 80 80s-35.821 80-80 80c-44.186 0-80.001-35.817-80.001-80s35.816-80 80.001-80z" />
<glyph unicode="&#xe92c;" glyph-name="save1" d="M725.335 832h-512.002c-47.36 0-85.334-38.4-85.334-85.334v-597.331c0-46.935 37.974-85.335 85.334-85.335h597.331c46.935 0 85.335 38.4 85.335 85.335v511.998l-170.665 170.666zM810.665 149.335h-597.331v597.331h476.586l120.745-120.746v-476.585zM512 448c-70.826 0-128-57.175-128-128s57.174-128 128-128c70.825 0 128 57.175 128 128s-57.175 128-128 128zM256 704h384v-170.666h-384v170.666z" />
<glyph unicode="&#xe92d;" glyph-name="add-plus" d="M559.405 685.185h-94.814v-189.629h-189.63v-94.815h189.63v-189.632h94.814v189.632h189.628v94.815h-189.628v189.629zM511.998 922.222c-261.689 0-474.074-212.385-474.074-474.074s212.385-474.072 474.074-474.072c261.691 0 474.074 212.383 474.074 474.072s-212.383 474.074-474.074 474.074zM511.998 68.887c-209.067 0-379.259 170.194-379.259 379.261s170.193 379.259 379.259 379.259c209.069 0 379.258-170.193 379.258-379.259s-170.189-379.261-379.258-379.261z" />
<glyph unicode="&#xe92e;" glyph-name="up-arrow" horiz-adv-x="1536" d="M180.48-25.917l587.52 586.24 587.52-586.24 180.48 180.48-768 768-768-768 180.48-180.48z" />
<glyph unicode="&#xe92f;" glyph-name="down-arrow" horiz-adv-x="1536" d="M180.48 922.234l587.52-586.239 587.52 586.239 180.48-180.479-768-768-768 768 180.48 180.479z" />
<glyph unicode="&#xe930;" glyph-name="code" horiz-adv-x="975" d="M381.966 236.822l-186.92 186.924 186.92 186.919-56.889 56.889-243.81-243.808 243.81-243.81 56.889 56.886zM593.267 236.822l186.924 186.924-186.924 186.919 56.891 56.889 243.81-243.808-243.81-243.81-56.891 56.886z" />
<glyph unicode="&#xe931;" glyph-name="arrow-right-2" horiz-adv-x="683" d="M145.487 960l-120.32-120.32 390.826-391.68-390.826-391.68 120.32-120.32 512 512-512 512z" />
<glyph unicode="&#xe933;" glyph-name="ecosystem-n" d="M354.461 487.386h-236.308c-31.336 0-61.389 12.446-83.547 34.607-22.158 22.157-34.606 52.209-34.606 83.546v236.308c0 31.336 12.448 61.389 34.606 83.547s52.211 34.606 83.547 34.606h236.308c31.337 0 61.389-12.448 83.546-34.606 22.161-22.158 34.607-52.211 34.607-83.547v-236.308c0-31.337-12.446-61.389-34.607-83.546-22.157-22.161-52.209-34.607-83.546-34.607zM118.154 881.231c-10.445 0-20.463-4.15-27.849-11.536s-11.536-17.404-11.536-27.849v-236.308c0-10.446 4.15-20.463 11.536-27.849s17.404-11.535 27.849-11.535h236.308c10.446 0 20.463 4.149 27.849 11.535s11.535 17.404 11.535 27.849v236.308c0 10.445-4.149 20.463-11.535 27.849s-17.404 11.536-27.849 11.536h-236.308zM905.847 487.386h-236.309c-31.334 0-61.389 12.446-83.546 34.607-22.157 22.157-34.607 52.209-34.607 83.546v236.308c0 31.336 12.45 61.389 34.607 83.547s52.211 34.606 83.546 34.606h236.309c31.334 0 61.389-12.448 83.546-34.606 22.161-22.158 34.607-52.211 34.607-83.547v-236.308c0-31.337-12.446-61.389-34.607-83.546-22.157-22.161-52.211-34.607-83.546-34.607zM669.538 881.231c-10.445 0-20.463-4.15-27.849-11.536s-11.537-17.404-11.537-27.849v-236.308c0-10.446 4.151-20.463 11.537-27.849s17.404-11.535 27.849-11.535h236.309c10.445 0 20.463 4.149 27.849 11.535s11.537 17.404 11.537 27.849v236.308c0 10.445-4.151 20.463-11.537 27.849s-17.404 11.536-27.849 11.536h-236.309zM354.461-64h-236.308c-31.336 0-61.389 12.446-83.547 34.607-22.158 22.157-34.606 52.211-34.606 83.546v236.309c0 31.334 12.448 61.389 34.606 83.546s52.211 34.607 83.547 34.607h236.308c31.337 0 61.389-12.45 83.546-34.607 22.161-22.157 34.607-52.211 34.607-83.546v-236.309c0-31.334-12.446-61.389-34.607-83.546-22.157-22.161-52.209-34.607-83.546-34.607zM118.154 329.847c-10.445 0-20.463-4.151-27.849-11.537s-11.536-17.404-11.536-27.849v-236.309c0-10.445 4.15-20.463 11.536-27.849s17.404-11.537 27.849-11.537h236.308c10.446 0 20.463 4.151 27.849 11.537s11.535 17.404 11.535 27.849v236.309c0 10.445-4.149 20.463-11.535 27.849s-17.404 11.537-27.849 11.537h-236.308zM787.695-64c-46.737 0-92.425 13.858-131.285 39.825s-69.15 62.869-87.036 106.052c-17.886 43.179-22.566 90.692-13.449 136.529 9.118 45.841 31.625 87.949 64.674 120.994 33.045 33.050 75.153 55.556 120.994 64.674 45.837 9.118 93.35 4.437 136.529-13.449 43.183-17.886 80.085-48.175 106.052-87.036s39.825-84.548 39.825-131.285c-0.060-62.652-24.977-122.722-69.282-167.023-44.301-44.305-104.371-69.222-167.023-69.282zM787.695 329.843c-31.159 0-61.619-9.237-87.526-26.547s-46.097-41.916-58.022-70.703c-11.921-28.787-15.044-60.463-8.964-91.021s21.082-58.628 43.115-80.661c22.033-22.033 50.103-37.039 80.661-43.115 30.562-6.080 62.238-2.961 91.021 8.964 28.787 11.925 53.393 32.115 70.703 58.022s26.551 56.367 26.551 87.522c0 41.783-16.597 81.856-46.144 111.398-29.542 29.542-69.615 46.14-111.394 46.14z" />
<glyph unicode="&#xe934;" glyph-name="history-n" d="M921.583-63.974h-595.753c-27.157 0-53.201 10.786-72.404 29.99s-29.991 45.248-29.991 72.405v16.755c-63.528 14.72-120.198 50.522-160.773 101.572s-62.662 114.338-62.662 179.55c0 65.212 22.087 128.499 62.662 179.55s97.245 86.853 160.773 101.571v240.164c0 27.157 10.788 53.201 29.991 72.404s45.248 29.991 72.404 29.991h415.913c13.495 0.025 26.859-2.628 39.326-7.805 12.463-5.177 23.774-12.776 33.28-22.355l179.473-179.471c9.805-9.725 17.532-21.34 22.716-34.141s7.718-26.52 7.441-40.329v-637.457c0-27.157-10.786-53.201-29.99-72.405s-45.248-29.99-72.405-29.99zM279.287 47.731v-9.31c0-12.343 4.904-24.183 13.632-32.913 8.729-8.725 20.567-13.632 32.911-13.632h595.753c12.348 0 24.183 4.907 32.913 13.632 8.73 8.73 13.632 20.57 13.632 32.913v605.063h-158.246c-27.157 0-53.201 10.788-72.405 29.991s-29.99 45.247-29.99 72.404v158.247h-381.656c-12.344 0-24.183-4.904-32.911-13.632s-13.632-20.567-13.632-32.911v-232.717h9.309c76.533 0 149.933-30.403 204.047-84.52 54.118-54.118 84.523-127.517 84.523-204.049 0-76.535-30.404-149.931-84.523-204.049-54.114-54.118-127.514-84.518-204.047-84.518h-9.309zM288.595 569.015c-46.027 0-91.020-13.649-129.29-39.219-38.27-25.574-68.098-61.918-85.712-104.439-17.614-42.526-22.223-89.318-13.243-134.46s31.143-86.609 63.689-119.155c32.546-32.546 74.012-54.707 119.155-63.689s91.934-4.369 134.458 13.244c42.523 17.613 78.868 47.441 104.439 85.709 25.574 38.272 39.219 83.264 39.219 129.293 0 61.722-24.516 120.913-68.16 164.557-43.642 43.641-102.834 68.16-164.555 68.16zM763.337 898.914v-153.034c0-12.344 4.902-24.183 13.632-32.911s20.57-13.632 32.913-13.632h153.033c-2.304 4.227-5.184 8.112-8.563 11.543l-179.473 179.471c-3.43 3.377-7.313 6.26-11.541 8.564zM847.117 196.668h-186.176c-7.407 0-14.507 2.944-19.746 8.179-5.235 5.239-8.179 12.339-8.179 19.746s2.944 14.511 8.179 19.746c5.239 5.239 12.339 8.179 19.746 8.179h186.176c7.407 0 14.507-2.94 19.746-8.179 5.235-5.235 8.179-12.339 8.179-19.746s-2.944-14.507-8.179-19.746c-5.239-5.235-12.339-8.179-19.746-8.179zM232.743 252.518c-7.184 0.55-13.868 3.891-18.617 9.31-4.579 5.12-7.111 11.75-7.111 18.62s2.532 13.495 7.111 18.615l47.66 47.659v101.282c0 7.403 2.942 14.507 8.179 19.746 5.237 5.235 12.34 8.179 19.747 8.179s14.51-2.944 19.747-8.179c5.237-5.239 8.18-12.343 8.18-19.746v-111.706c-0.007-7.403-2.953-14.502-8.192-19.733l-58.086-54.737c-4.75-5.419-11.433-8.759-18.617-9.31zM847.117 345.609h-148.941c-7.407 0-14.511 2.94-19.746 8.179-5.235 5.235-8.179 12.339-8.179 19.746s2.944 14.507 8.179 19.746c5.235 5.235 12.339 8.179 19.746 8.179h148.941c7.407 0 14.507-2.944 19.746-8.179 5.235-5.239 8.179-12.339 8.179-19.746s-2.944-14.511-8.179-19.746c-5.239-5.239-12.339-8.179-19.746-8.179zM847.117 494.545h-186.176c-7.407 0-14.507 2.944-19.746 8.179-5.235 5.239-8.179 12.339-8.179 19.746s2.944 14.511 8.179 19.748c5.239 5.237 12.339 8.18 19.746 8.18h186.176c7.407 0 14.507-2.942 19.746-8.18 5.235-5.237 8.179-12.341 8.179-19.748s-2.944-14.507-8.179-19.746c-5.239-5.235-12.339-8.179-19.746-8.179zM586.47 643.484h-111.701c-7.407 0-14.511 2.942-19.746 8.18-5.239 5.237-8.179 12.34-8.179 19.747s2.94 14.51 8.179 19.747c5.235 5.237 12.339 8.18 19.746 8.18h111.701c7.407 0 14.511-2.942 19.75-8.18 5.235-5.237 8.179-12.34 8.179-19.747s-2.944-14.51-8.179-19.747c-5.239-5.237-12.343-8.18-19.75-8.18z" />
<glyph unicode="&#xe935;" glyph-name="copy-bordered" horiz-adv-x="896" d="M777.847-64h-472.616c-31.336 0-61.389 12.45-83.547 34.607-22.158 22.161-34.607 52.211-34.607 83.55v630.153c0 31.336 12.448 61.389 34.607 83.547s52.211 34.607 83.547 34.607h472.616c31.334 0 61.389-12.448 83.546-34.607 22.161-22.158 34.607-52.211 34.607-83.547v-630.153c0-31.339-12.446-61.389-34.607-83.55-22.157-22.157-52.211-34.607-83.546-34.607zM305.232 723.695c-10.445 0-20.463-4.15-27.849-11.536s-11.535-17.404-11.535-27.849v-630.153c0-10.445 4.149-20.463 11.535-27.849s17.404-11.537 27.849-11.537h472.616c10.445 0 20.463 4.151 27.849 11.537s11.537 17.404 11.537 27.849v630.153c0 10.445-4.151 20.463-11.537 27.849s-17.404 11.536-27.849 11.536h-472.616zM68.926 329.847c-10.446 0-20.463 4.147-27.849 11.533s-11.535 17.404-11.535 27.849v472.617c0 31.336 12.448 61.389 34.606 83.547s52.211 34.606 83.547 34.606h393.847c10.445 0 20.463-4.149 27.849-11.535s11.537-17.404 11.537-27.849c0-10.445-4.151-20.463-11.537-27.849s-17.404-11.535-27.849-11.535h-393.847c-10.445 0-20.463-4.15-27.849-11.536s-11.535-17.404-11.535-27.849v-472.617c0-10.445-4.15-20.463-11.536-27.849s-17.403-11.533-27.849-11.533z" />
</font>
</defs>
</svg>
