<svg width="40" height="40" viewBox="0 0 40 40" fill="none" xmlns="http://www.w3.org/2000/svg">
<path fill-rule="evenodd" clip-rule="evenodd" d="M3.125 20C3.125 29.3198 10.6802 36.875 20 36.875C29.3198 36.875 36.875 29.3198 36.875 20C36.875 10.6802 29.3198 3.125 20 3.125C10.6802 3.125 3.125 10.6802 3.125 20ZM20 0C8.95431 0 0 8.9543 0 20C0 31.0457 8.95431 40 20 40C31.0457 40 40 31.0457 40 20C40 8.9543 31.0457 0 20 0Z" fill="#061C00"/>
<path d="M23.5582 28.3965H14.1992V24.2114H23.5582C24.7262 24.2114 25.6729 25.1482 25.6729 26.304C25.6729 27.4596 24.7262 28.3965 23.5582 28.3965ZM14.1992 17.9074H23.5582C24.7262 17.9074 25.6729 18.8442 25.6729 20C25.6729 21.1556 24.7262 22.0925 23.5582 22.0925H14.1992V17.9074ZM14.1992 11.6034H23.5582C24.7262 11.6034 25.6729 12.5402 25.6729 13.696C25.6729 14.8516 24.7262 15.7885 23.5582 15.7885H14.1992V11.6034ZM28.4536 13.696C28.4536 11.3701 26.5481 9.4845 24.1976 9.4845H11.5464V15.7885V17.9074V22.0925V24.2114V30.5154H24.1976C26.5481 30.5154 28.4536 28.6299 28.4536 26.304C28.4536 25.0494 27.8985 23.9235 27.0189 23.152C27.8985 22.3804 28.4536 21.2546 28.4536 20C28.4536 18.7453 27.8985 17.6195 27.0189 16.848C27.8985 16.0764 28.4536 14.9506 28.4536 13.696Z" fill="#061C00"/>
</svg>
