<svg width="20" height="24" viewBox="0 0 20 24" fill="none" xmlns="http://www.w3.org/2000/svg">
<path d="M14.0196 21.582H3.44703V16.806H14.0196C15.339 16.806 16.4084 17.875 16.4084 19.194C16.4084 20.5127 15.339 21.582 14.0196 21.582ZM3.44703 9.61203H14.0196C15.339 9.61203 16.4084 10.6811 16.4084 12C16.4084 13.3187 15.339 14.388 14.0196 14.388H3.44703V9.61203ZM3.44703 2.41805H14.0196C15.339 2.41805 16.4084 3.48708 16.4084 4.80602C16.4084 6.12476 15.339 7.19398 14.0196 7.19398H3.44703V2.41805ZM19.5496 4.80602C19.5496 2.15175 17.3971 0 14.7418 0H0.450317V7.19398V9.61203V14.388V16.806V24H14.7418C17.3971 24 19.5496 21.8482 19.5496 19.194C19.5496 17.7622 18.9225 16.4774 17.9289 15.597C18.9225 14.7165 19.5496 13.4317 19.5496 12C19.5496 10.5683 18.9225 9.28345 17.9289 8.40301C18.9225 7.52256 19.5496 6.23776 19.5496 4.80602Z" fill="#061C00"/>
</svg>
