<svg width="20" height="14" viewBox="0 0 20 14" fill="none" xmlns="http://www.w3.org/2000/svg">
<path d="M12.5 0.333252C8.81665 0.333252 5.83331 3.31658 5.83331 6.99992C5.83331 10.6833 8.81665 13.6666 12.5 13.6666C16.1833 13.6666 19.1666 10.6833 19.1666 6.99992C19.1666 3.31658 16.1833 0.333252 12.5 0.333252ZM12.5 11.9999C9.74165 11.9999 7.49998 9.75825 7.49998 6.99992C7.49998 4.24159 9.74165 1.99992 12.5 1.99992C15.2583 1.99992 17.5 4.24159 17.5 6.99992C17.5 9.75825 15.2583 11.9999 12.5 11.9999ZM2.49998 6.99992C2.49998 4.82492 3.89165 2.97492 5.83331 2.29158V0.549919C2.95831 1.29159 0.833313 3.89158 0.833313 6.99992C0.833313 10.1083 2.95831 12.7083 5.83331 13.4499V11.7083C3.89165 11.0249 2.49998 9.17492 2.49998 6.99992Z" fill="#039855"/>
</svg>
