<svg width="18" height="18" viewBox="0 0 18 18" fill="none" xmlns="http://www.w3.org/2000/svg">
<path d="M8.99175 0.666748C4.39175 0.666748 0.666748 4.40008 0.666748 9.00008C0.666748 13.6001 4.39175 17.3334 8.99175 17.3334C13.6001 17.3334 17.3334 13.6001 17.3334 9.00008C17.3334 4.40008 13.6001 0.666748 8.99175 0.666748ZM14.7667 5.66675H12.3084C12.0417 4.62508 11.6584 3.62508 11.1584 2.70008C12.6917 3.22508 13.9667 4.29175 14.7667 5.66675ZM9.00008 2.36675C9.69175 3.36675 10.2334 4.47508 10.5917 5.66675H7.40842C7.76675 4.47508 8.30841 3.36675 9.00008 2.36675ZM2.55008 10.6667C2.41675 10.1334 2.33341 9.57508 2.33341 9.00008C2.33341 8.42508 2.41675 7.86675 2.55008 7.33342H5.36675C5.30008 7.88342 5.25008 8.43341 5.25008 9.00008C5.25008 9.56675 5.30008 10.1167 5.36675 10.6667H2.55008ZM3.23341 12.3334H5.69175C5.95841 13.3751 6.34175 14.3751 6.84175 15.3001C5.30841 14.7751 4.03341 13.7167 3.23341 12.3334ZM5.69175 5.66675H3.23341C4.03341 4.28341 5.30841 3.22508 6.84175 2.70008C6.34175 3.62508 5.95841 4.62508 5.69175 5.66675ZM9.00008 15.6334C8.30841 14.6334 7.76675 13.5251 7.40842 12.3334H10.5917C10.2334 13.5251 9.69175 14.6334 9.00008 15.6334ZM10.9501 10.6667H7.05008C6.97508 10.1167 6.91675 9.56675 6.91675 9.00008C6.91675 8.43341 6.97508 7.87508 7.05008 7.33342H10.9501C11.0251 7.87508 11.0834 8.43341 11.0834 9.00008C11.0834 9.56675 11.0251 10.1167 10.9501 10.6667ZM11.1584 15.3001C11.6584 14.3751 12.0417 13.3751 12.3084 12.3334H14.7667C13.9667 13.7084 12.6917 14.7751 11.1584 15.3001ZM12.6334 10.6667C12.7001 10.1167 12.7501 9.56675 12.7501 9.00008C12.7501 8.43341 12.7001 7.88342 12.6334 7.33342H15.4501C15.5834 7.86675 15.6667 8.42508 15.6667 9.00008C15.6667 9.57508 15.5834 10.1334 15.4501 10.6667H12.6334Z" fill="black"/>
</svg>
