<svg width="20" height="10" viewBox="0 0 20 10" fill="none" xmlns="http://www.w3.org/2000/svg">
<path d="M17.5 3.33333H10.5417C9.85833 1.39167 8.00833 0 5.83333 0C3.07499 0 0.833328 2.24167 0.833328 5C0.833328 7.75833 3.07499 10 5.83333 10C8.00833 10 9.85833 8.60833 10.5417 6.66667H10.8333L12.5 8.33333L14.1667 6.66667L15.8333 8.33333L19.1667 4.96667L17.5 3.33333ZM5.83333 7.5C4.45833 7.5 3.33333 6.375 3.33333 5C3.33333 3.625 4.45833 2.5 5.83333 2.5C7.20833 2.5 8.33333 3.625 8.33333 5C8.33333 6.375 7.20833 7.5 5.83333 7.5Z" fill="black"/>
</svg>
