<svg width="34" height="34" viewBox="0 0 34 34" fill="none" xmlns="http://www.w3.org/2000/svg">
<path d="M22.8166 13.05C22.5166 8.40004 20.6333 3.86671 17.1 0.333374C13.5333 3.90004 11.5666 8.43337 11.1833 13.05C13.3166 14.1834 15.2833 15.65 17 17.4334C18.7166 15.6667 20.6833 14.2 22.8166 13.05ZM17.0833 5.65004C18.1333 7.36671 18.8666 9.28337 19.25 11.2834C18.4666 11.7834 17.7333 12.3334 17.0166 12.9167C16.3166 12.35 15.5666 11.8 14.8 11.3C15.2166 9.30004 15.9833 7.38337 17.0833 5.65004ZM17 22.75C15.6333 20.6667 13.9 18.85 11.9 17.4167C11.6833 17.2667 11.45 17.15 11.2333 16.9834C11.45 17.1334 11.6833 17.2667 11.8833 17.4C8.63331 15.05 4.64998 13.6667 0.333313 13.6667C0.333313 22.5334 5.93331 30.0334 13.7166 32.8167C14.7666 33.2 15.8666 33.4834 17 33.6667C18.1333 33.4667 19.2166 33.1834 20.2833 32.8167C28.0666 30.0334 33.6666 22.5334 33.6666 13.6667C26.7 13.6667 20.5833 17.2834 17 22.75ZM19.2 29.6667C18.4666 29.9167 17.7333 30.1167 16.9833 30.2834C16.25 30.1334 15.5333 29.9334 14.85 29.6834C9.36665 27.7167 5.34998 23.0334 4.09998 17.4334C5.93331 17.8667 7.68331 18.6167 9.29998 19.65L9.26665 19.6667C9.48331 19.8167 9.69998 19.9667 9.91665 20.0834L10.0333 20.15C11.6833 21.35 13.1 22.8334 14.2166 24.5667L17 28.8334L19.7833 24.5834C20.9333 22.8334 22.3666 21.3334 24 20.15L24.1166 20.0667C24.2666 19.9834 24.4166 19.8834 24.5666 19.7834L24.55 19.75C26.1833 18.6667 28 17.8667 29.9 17.4167C28.65 23.0334 24.65 27.7167 19.2 29.6667ZM11.9833 17.4667C11.95 17.45 11.9166 17.4167 11.9 17.4C11.9 17.4 11.9166 17.4 11.9166 17.4167C11.9333 17.4334 11.95 17.45 11.9833 17.4667Z" fill="#B1B4BD"/>
</svg>
