<svg width="16" height="16" viewBox="0 0 16 16" fill="none" xmlns="http://www.w3.org/2000/svg">
<path d="M15.0833 4.06667V2.16667C15.0833 1.25 14.3333 0.5 13.4166 0.5H1.74992C0.824919 0.5 0.083252 1.25 0.083252 2.16667V13.8333C0.083252 14.75 0.824919 15.5 1.74992 15.5H13.4166C14.3333 15.5 15.0833 14.75 15.0833 13.8333V11.9333C15.5749 11.6417 15.9166 11.1167 15.9166 10.5V5.5C15.9166 4.88333 15.5749 4.35833 15.0833 4.06667ZM14.2499 5.5V10.5H8.41658V5.5H14.2499ZM1.74992 13.8333V2.16667H13.4166V3.83333H8.41658C7.49992 3.83333 6.74992 4.58333 6.74992 5.5V10.5C6.74992 11.4167 7.49992 12.1667 8.41658 12.1667H13.4166V13.8333H1.74992Z" fill="white"/>
<path d="M10.9166 9.25C11.6069 9.25 12.1666 8.69036 12.1666 8C12.1666 7.30964 11.6069 6.75 10.9166 6.75C10.2262 6.75 9.66658 7.30964 9.66658 8C9.66658 8.69036 10.2262 9.25 10.9166 9.25Z" fill="white"/>
</svg>
