<svg width="29" height="31" viewBox="0 0 29 31" fill="none" xmlns="http://www.w3.org/2000/svg">
<path fill-rule="evenodd" clip-rule="evenodd" d="M11.4973 7.62156C11.9969 3.7654 13.404 1.07934 15.4639 0.709938C18.3401 0.194718 21.591 4.35785 23.4825 10.512C24.2469 10.5878 24.953 10.7327 25.5842 10.9455C25.5508 10.9219 25.5186 10.8962 25.4879 10.8687C25.3286 10.7261 25.2152 10.5394 25.162 10.3323C25.1088 10.1252 25.1183 9.90703 25.1892 9.70532C25.26 9.5036 25.3892 9.32744 25.5602 9.19911C25.7312 9.07079 25.9365 8.99607 26.15 8.9844C26.436 8.96884 26.7165 9.06742 26.9299 9.25849C27.1433 9.44956 27.2722 9.7175 27.2881 10.0035C27.3 10.217 27.2483 10.4292 27.1396 10.6132C27.0308 10.7973 26.8699 10.945 26.6772 11.0377C26.4948 11.1253 26.2916 11.1599 26.0909 11.1379C27.2264 11.6208 28.0667 12.3554 28.4943 13.3335C29.4789 15.5863 28.0281 18.5681 25.0449 21.1588C25.0282 22.315 24.9428 23.407 24.7936 24.4133C24.888 24.4644 24.9763 24.5264 25.0566 24.5983C25.1909 24.7186 25.3001 24.8642 25.3782 25.0267C25.4562 25.1892 25.5014 25.3655 25.5113 25.5456C25.5262 25.8167 25.4604 26.0862 25.3222 26.3199C25.1839 26.5537 24.9795 26.7412 24.7346 26.8587C24.5701 26.9377 24.3923 26.9827 24.2118 26.9921C23.5001 29.2187 22.3582 30.6761 20.8804 30.9409C18.8828 31.2987 16.7041 29.3999 14.9258 26.1446C10.0738 27.2079 5.91885 26.3417 4.76561 23.7036C3.90491 21.7347 4.90445 19.2088 7.16146 16.8739C2.85914 14.3293 0.236549 11.2569 0.89185 9.10788C1.61021 6.75078 6.04865 6.23674 11.4973 7.62156ZM24.3989 21.6945C24.3833 22.5959 24.3192 23.4522 24.2098 24.2498C24.1617 24.2474 24.1134 24.2475 24.0651 24.2501C23.7939 24.265 23.5332 24.36 23.316 24.523C23.0988 24.686 22.9348 24.9098 22.8448 25.166C22.7548 25.4222 22.7428 25.6993 22.8103 25.9623C22.8778 26.2254 23.0218 26.4625 23.2241 26.6437C23.3389 26.7465 23.4696 26.8288 23.6104 26.8876C22.9817 28.7334 21.9999 29.9383 20.7413 30.1638C18.9912 30.4773 17.0857 28.8295 15.5328 26.0024C16.7731 25.6931 18.0519 25.26 19.3319 24.7006C21.2597 23.8581 22.9754 22.8229 24.3989 21.6945ZM16.0377 3.91303C18.233 3.51977 20.6735 6.21381 22.3553 10.4507C21.3952 10.4389 20.3651 10.5233 19.2916 10.7058C18.0384 10.0144 16.6617 9.37066 15.1962 8.80605C14.4281 8.51012 13.6674 8.24815 12.9205 8.02002C13.522 5.70828 14.5991 4.17073 16.0377 3.91303ZM22.843 11.7872C22.1927 11.6316 21.4717 11.5468 20.6985 11.5341C21.6901 12.1572 22.5801 12.8065 23.3463 13.462C23.1919 12.8858 23.0235 12.3267 22.843 11.7872ZM16.0194 9.84612C16.8446 10.1641 17.6372 10.5113 18.3892 10.8802C16.9443 11.1928 15.4367 11.6767 13.9274 12.3362C13.3939 12.5694 12.8767 12.8173 12.3774 13.0778C12.3618 11.5106 12.4881 10.0632 12.7411 8.80242C13.7983 9.06701 14.8999 9.41469 16.0194 9.84612ZM13.3628 13.1602C13.0304 13.3054 12.7054 13.4573 12.3881 13.6152C12.4302 15.0152 12.5829 16.5017 12.8567 18.0295C12.9075 18.3132 12.9617 18.594 13.0192 18.8718C13.093 18.9009 13.1671 18.9298 13.2414 18.9585C17.4433 20.5775 21.392 21.0174 23.6932 20.3117C23.927 20.0819 24.147 19.8495 24.3523 19.6155C24.2829 18.4681 24.1413 17.2709 23.922 16.0473C23.8166 15.4591 23.6966 14.8829 23.5632 14.3208C22.5493 13.3692 21.226 12.4213 19.6813 11.5573C17.7434 11.6741 15.5544 12.2024 13.3628 13.1602ZM11.4005 8.5065C11.2601 10.067 11.2589 11.7904 11.4119 13.61C10.0616 14.3958 8.86551 15.2726 7.86252 16.192C4.82797 14.139 3.07497 11.8241 3.58678 10.1463C4.15247 8.29178 7.32704 7.73102 11.4005 8.5065ZM11.4573 14.1079C10.2189 14.8043 9.12229 15.5905 8.20536 16.4192C9.37062 17.1763 10.7086 17.8924 12.1686 18.5211C12.0539 18.0091 11.9487 17.4874 11.8537 16.9574C11.6805 15.9902 11.549 15.0375 11.4573 14.1079ZM5.42668 23.0763C4.6695 21.3442 5.54349 19.1256 7.51906 17.082C8.87956 17.8607 10.397 18.585 12.0238 19.2117C12.1367 19.2553 12.2495 19.298 12.3621 19.3401C12.9048 21.5221 13.6189 23.5088 14.439 25.1989C10.1497 26.1745 6.44996 25.4176 5.42668 23.0763ZM18.0951 23.986C19.9532 23.1742 21.5834 22.1538 22.8908 21.0437C20.4358 21.3937 16.9421 20.9299 13.1873 19.6363C13.6577 21.6546 14.2989 23.4933 15.0447 25.0506C16.044 24.7885 17.0692 24.4343 18.0951 23.986ZM24.9887 18.8207C25.2796 18.4194 25.5259 18.0165 25.7238 17.6167C25.6059 16.9397 25.2221 16.2034 24.6175 15.449C24.7998 16.6021 24.9224 17.731 24.9887 18.8207ZM24.4558 14.5049C25.1932 15.2741 25.7445 16.0371 26.0741 16.7615C26.3826 15.8026 26.3865 14.8827 26.0312 14.0702C25.6575 13.2154 24.9266 12.5717 23.9403 12.1465C24.134 12.9097 24.3068 13.6973 24.4558 14.5049ZM3.74375 19.12C3.84964 18.941 3.90006 18.7346 3.88863 18.5269C3.88107 18.389 3.84642 18.254 3.78666 18.1295C3.7269 18.005 3.6432 17.8935 3.54034 17.8014C3.43748 17.7092 3.31747 17.6382 3.18717 17.5925C3.05687 17.5467 2.91884 17.5271 2.78095 17.5347C2.57324 17.5461 2.37358 17.6188 2.20721 17.7436C2.04083 17.8685 1.91523 18.0399 1.84627 18.2361C1.77732 18.4323 1.76811 18.6446 1.81981 18.8461C1.87152 19.0476 1.98181 19.2292 2.13675 19.3679C2.29169 19.5067 2.4843 19.5965 2.69024 19.6258C2.89618 19.6551 3.10619 19.6227 3.29372 19.5327C3.48124 19.4426 3.63785 19.299 3.74375 19.12ZM10.1818 3.22279C10.1929 3.42471 10.1439 3.62539 10.0409 3.79945C9.93797 3.97352 9.7857 4.11314 9.60338 4.20067C9.42106 4.28821 9.21687 4.31971 9.01665 4.2912C8.81642 4.26269 8.62915 4.17545 8.47851 4.04051C8.32787 3.90558 8.22064 3.729 8.17037 3.53312C8.1201 3.33725 8.12905 3.13086 8.19609 2.94007C8.26314 2.74927 8.38526 2.58265 8.54702 2.46125C8.70877 2.33986 8.9029 2.26916 9.10484 2.25809C9.23891 2.25071 9.37312 2.26981 9.4998 2.3143C9.62648 2.35879 9.74316 2.4278 9.84317 2.51738C9.94317 2.60696 10.0245 2.71537 10.0827 2.8364C10.1408 2.95744 10.1744 3.08873 10.1818 3.22279ZM18.2528 8.41731C18.3204 8.30296 18.3526 8.17114 18.3453 8.03849C18.3355 7.86063 18.2554 7.69394 18.1227 7.57509C17.99 7.45624 17.8155 7.39497 17.6377 7.40476C17.505 7.41206 17.3775 7.45853 17.2712 7.5383C17.165 7.61806 17.0848 7.72753 17.0408 7.85287C16.9968 7.97821 16.9909 8.11379 17.0239 8.24246C17.057 8.37112 17.1274 8.48711 17.2264 8.57574C17.3254 8.66437 17.4484 8.72166 17.5799 8.74038C17.7114 8.7591 17.8456 8.73839 17.9653 8.68089C18.0851 8.62338 18.1851 8.53165 18.2528 8.41731Z" fill="white"/>
</svg>
