<svg width="28" height="28" viewBox="0 0 28 28" fill="none" xmlns="http://www.w3.org/2000/svg">
<path d="M18.6534 10.84C18.4134 7.11996 16.9067 3.49329 14.08 0.666626C11.2267 3.51996 9.65335 7.14663 9.34669 10.84C11.0534 11.7466 12.6267 12.92 14 14.3466C15.3734 12.9333 16.9467 11.76 18.6534 10.84ZM9.98669 14.3733C9.80002 14.24 9.58669 14.12 9.38669 13.9866C9.58669 14.1333 9.80002 14.24 9.98669 14.3733ZM14 18.6C11.1334 14.2266 6.24002 11.3333 0.666687 11.3333C0.666687 18.4266 5.14669 24.4266 11.3734 26.6533C12.2134 26.96 13.0934 27.1866 14 27.3333C14.9067 27.1733 15.7734 26.9466 16.6267 26.6533C22.8534 24.4266 27.3334 18.4266 27.3334 11.3333C21.76 11.3333 16.8667 14.2266 14 18.6Z" fill="#9ECC00"/>
</svg>
