<svg width="18" height="18" viewBox="0 0 18 18" fill="none" xmlns="http://www.w3.org/2000/svg">
<path d="M13.7083 14.0001C12.7917 14.0001 12.05 14.7501 12.05 15.6667C12.05 16.5834 12.7917 17.3334 13.7083 17.3334C14.625 17.3334 15.375 16.5834 15.375 15.6667C15.375 14.7501 14.625 14.0001 13.7083 14.0001ZM5.375 14.0001C4.45833 14.0001 3.71667 14.7501 3.71667 15.6667C3.71667 16.5834 4.45833 17.3334 5.375 17.3334C6.29167 17.3334 7.04167 16.5834 7.04167 15.6667C7.04167 14.7501 6.29167 14.0001 5.375 14.0001ZM5.375 11.5001L6.29167 9.83342H12.5C13.125 9.83342 13.675 9.49175 13.9583 8.97508L17.625 2.33341H3.88333L3.1 0.666748H0.375V2.33341H2.04167L5.04167 8.65842L2.55833 13.1667H15.375V11.5001H5.375Z" fill="#039855"/>
</svg>
