<svg width="28" height="28" viewBox="0 0 28 28" fill="none" xmlns="http://www.w3.org/2000/svg">
<path d="M12.6667 17.9997H15.3334V20.6661H12.6667V17.9997ZM12.6667 7.33386H15.3334V15.3332H12.6667V7.33386ZM13.9867 0.667725C6.62675 0.667725 0.666748 6.64058 0.666748 14C0.666748 21.3594 6.62675 27.3322 13.9867 27.3322C21.3601 27.3322 27.3334 21.3594 27.3334 14C27.3334 6.64058 21.3601 0.667725 13.9867 0.667725ZM14.0001 24.6658C8.10675 24.6658 3.33341 19.8928 3.33341 14C3.33341 8.10713 8.10675 3.33418 14.0001 3.33418C19.8934 3.33418 24.6667 8.10713 24.6667 14C24.6667 19.8928 19.8934 24.6658 14.0001 24.6658Z" fill="white"/>
</svg>
