<svg width="22" height="22" viewBox="0 0 22 22" fill="none" xmlns="http://www.w3.org/2000/svg">
<path d="M10.4551 16.74C7.27512 16.59 4.74512 13.97 4.74512 10.75C4.74512 7.44 7.43512 4.75 10.7451 4.75C13.9651 4.75 16.5851 7.28 16.7351 10.46L14.6351 9.83C14.2251 8.06 12.6351 6.75 10.7451 6.75C8.53512 6.75 6.74512 8.54 6.74512 10.75C6.74512 12.64 8.05512 14.23 9.82512 14.64L10.4551 16.74ZM20.7451 10.75C20.7451 11.05 20.7351 11.35 20.7051 11.65L18.7351 11.06C18.7451 10.96 18.7451 10.85 18.7451 10.75C18.7451 6.33 15.1651 2.75 10.7451 2.75C6.32512 2.75 2.74512 6.33 2.74512 10.75C2.74512 15.17 6.32512 18.75 10.7451 18.75C10.8451 18.75 10.9551 18.75 11.0551 18.74L11.6451 20.71C11.3451 20.74 11.0451 20.75 10.7451 20.75C5.22512 20.75 0.745117 16.27 0.745117 10.75C0.745117 5.23 5.22512 0.75 10.7451 0.75C16.2651 0.75 20.7451 5.23 20.7451 10.75ZM16.9751 15.01L20.7451 13.75L10.7451 10.75L13.7451 20.75L15.0051 16.98L19.2751 21.25L21.2551 19.27L16.9751 15.01Z" fill="#667085"/>
</svg>
