<svg width="40" height="40" viewBox="0 0 40 40" fill="none" xmlns="http://www.w3.org/2000/svg">
<path fill-rule="evenodd" clip-rule="evenodd" d="M3.125 20C3.125 29.3198 10.6802 36.875 20 36.875C29.3198 36.875 36.875 29.3198 36.875 20C36.875 10.6802 29.3198 3.125 20 3.125C10.6802 3.125 3.125 10.6802 3.125 20ZM20 0C8.95431 0 0 8.9543 0 20C0 31.0457 8.95431 40 20 40C31.0457 40 40 31.0457 40 20C40 8.9543 31.0457 0 20 0Z" fill="#9ECC00"/>
<path d="M11.8911 14.8148C9.11739 14.8148 7.40741 16.6716 7.40741 19.7136C7.40741 22.7556 9.10393 24.6124 11.8641 24.6124C14.3012 24.6124 15.9169 23.3086 16.1054 20.9778H13.6684C13.5337 22.0313 12.874 22.637 11.8641 22.637C10.6254 22.637 9.84447 21.5309 9.84447 19.7136C9.84447 17.8963 10.6254 16.7901 11.8911 16.7901C12.9009 16.7901 13.5472 17.3827 13.6549 18.3967H16.065C15.9708 16.2107 14.3685 14.8148 11.8911 14.8148Z" fill="#9ECC00"/>
<path d="M22.0389 14.8148C19.171 14.8148 17.3937 16.6979 17.3937 19.7136C17.3937 22.7292 19.171 24.6124 22.0389 24.6124C24.8934 24.6124 26.6707 22.7292 26.6707 19.7136C26.6707 16.6979 24.8934 14.8148 22.0389 14.8148ZM22.0389 16.7901C23.4257 16.7901 24.2336 17.87 24.2336 19.7136C24.2336 21.5572 23.4257 22.637 22.0389 22.637C20.6386 22.637 19.8307 21.5572 19.8307 19.7136C19.8307 17.87 20.6386 16.7901 22.0389 16.7901Z" fill="#9ECC00"/>
<path d="M30.5731 20.3062C28.9035 20.3062 27.9206 21.0963 27.9072 22.5185H29.7922C29.8057 21.9523 30.0884 21.6626 30.5866 21.6626C30.9905 21.6626 31.2329 21.8733 31.2329 22.2156C31.2329 22.7424 30.6405 23.0453 29.7249 23.4798C28.2707 24.1778 27.8264 24.9811 27.8264 26.2979C27.8264 26.4296 27.8399 26.5613 27.8533 26.6667H33.3333V25.2181H30.0346C30.0615 24.9284 30.2769 24.7177 31.4079 24.2436C32.4312 23.8091 33.1583 23.2955 33.1583 22.2156C33.1583 21.1226 32.1754 20.3062 30.5731 20.3062Z" fill="#9ECC00"/>
</svg>
