<svg width="20" height="20" viewBox="0 0 20 20" fill="none" xmlns="http://www.w3.org/2000/svg">
<path d="M17.435 10.99L17.425 11.01C17.465 10.68 17.505 10.34 17.505 10C17.505 9.66 17.475 9.34 17.435 9.01L17.445 9.03L19.885 7.11L17.455 2.89L14.585 4.05L14.595 4.06C14.075 3.66 13.505 3.32 12.885 3.06H12.895L12.435 0H7.56499L7.12499 3.07H7.13499C6.51499 3.33 5.94499 3.67 5.42499 4.07L5.43499 4.06L2.55499 2.89L0.11499 7.11L2.55499 9.03L2.56499 9.01C2.52499 9.34 2.49499 9.66 2.49499 10C2.49499 10.34 2.52499 10.68 2.57499 11.01L2.56499 10.99L0.46499 12.64L0.13499 12.9L2.56499 17.1L5.44499 15.95L5.42499 15.91C5.95499 16.32 6.52499 16.66 7.15499 16.92H7.12499L7.57499 20H12.425C12.425 20 12.455 19.82 12.485 19.58L12.865 16.93H12.855C13.475 16.67 14.055 16.33 14.585 15.92L14.565 15.96L17.445 17.11L19.875 12.91C19.875 12.91 19.735 12.79 19.545 12.65L17.435 10.99ZM9.99499 13.5C8.06499 13.5 6.49499 11.93 6.49499 10C6.49499 8.07 8.06499 6.5 9.99499 6.5C11.925 6.5 13.495 8.07 13.495 10C13.495 11.93 11.925 13.5 9.99499 13.5Z" fill="white"/>
</svg>
