<svg width="30" height="30" viewBox="0 0 30 30" fill="none" xmlns="http://www.w3.org/2000/svg">
<path d="M18.6167 3.33333L26.6667 11.3833V26.6667H3.33333V3.33333H18.6167ZM18.6167 0H3.33333C1.5 0 0 1.5 0 3.33333V26.6667C0 28.5 1.5 30 3.33333 30H26.6667C28.5 30 30 28.5 30 26.6667V11.3833C30 10.5 29.65 9.65 29.0167 9.03333L20.9667 0.983333C20.35 0.35 19.5 0 18.6167 0ZM6.66667 20H23.3333V23.3333H6.66667V20ZM6.66667 13.3333H23.3333V16.6667H6.66667V13.3333ZM6.66667 6.66667H18.3333V10H6.66667V6.66667Z" fill="#026AA2"/>
</svg>
